<?xml version="1.0" standalone="no"?>
<!DOCTYPE svg PUBLIC "-//W3C//DTD SVG 20010904//EN"
 "http://www.w3.org/TR/2001/REC-SVG-20010904/DTD/svg10.dtd">
<svg version="1.0" xmlns="http://www.w3.org/2000/svg"
 width="512.000000pt" height="512.000000pt" viewBox="0 0 512.000000 512.000000"
 preserveAspectRatio="xMidYMid meet">
<metadata>
Created by potrace 1.15, written by Peter Selinger 2001-2017
</metadata>
<g transform="translate(0.000000,512.000000) scale(0.100000,-0.100000)"
fill="#000000" stroke="none">
<path d="M0 2560 l0 -2560 2560 0 2560 0 0 2560 0 2560 -2560 0 -2560 0 0
-2560z m1545 1160 c7 0 27 -12 44 -26 25 -21 31 -34 31 -65 0 -35 -73 -553
-85 -606 l-5 -23 200 0 c110 0 200 2 200 5 0 2 20 143 45 312 25 170 45 313
45 320 0 23 52 73 86 82 44 12 93 -1 124 -34 21 -23 23 -30 17 -102 -6 -70
-69 -505 -82 -560 -5 -23 -5 -23 113 -23 115 0 120 -1 145 -26 58 -57 39 -156
-33 -181 -19 -7 -86 -12 -147 -12 -62 -1 -113 -4 -113 -8 0 -12 -50 -345 -56
-375 l-6 -28 109 0 c90 0 113 -3 141 -20 62 -38 70 -114 18 -166 l-34 -34
-131 0 -130 0 -6 -32 c-3 -18 -27 -178 -54 -354 -50 -341 -55 -360 -112 -390
-63 -32 -159 18 -159 83 0 15 22 178 49 361 l48 332 -198 0 -198 0 -6 -32 c-3
-18 -28 -181 -55 -363 l-48 -330 -31 -27 c-17 -15 -42 -30 -56 -34 -35 -9 -94
15 -119 49 l-20 28 50 354 50 355 -129 0 c-128 0 -129 0 -157 29 -37 37 -46
73 -28 119 22 60 58 72 216 72 99 0 132 3 132 13 0 6 13 99 29 205 l28 192
-111 1 c-61 0 -127 5 -146 12 -71 24 -90 130 -33 183 25 23 32 24 174 24 82 0
149 2 149 5 0 15 82 568 91 611 6 31 19 60 33 73 25 24 73 42 94 35 8 -2 20
-4 27 -4z m1491 -66 c64 -31 64 -29 64 -485 l0 -412 31 46 c59 90 179 167 314
202 80 21 260 21 339 0 183 -49 307 -170 365 -358 l25 -82 3 -505 c4 -564 6
-549 -66 -597 -63 -43 -168 -23 -203 39 -10 18 -14 139 -18 543 -5 509 -6 521
-28 575 -43 109 -147 179 -277 188 -215 14 -392 -102 -458 -301 -20 -58 -21
-90 -26 -528 -6 -449 -7 -468 -26 -489 -66 -73 -189 -65 -242 17 -17 26 -18
81 -18 1053 0 970 1 1026 18 1051 38 56 134 76 203 43z"/>
<path d="M1500 2776 c0 -11 -51 -354 -56 -378 l-6 -28 201 0 c135 0 201 3 201
11 0 11 46 323 55 372 l5 27 -200 0 c-110 0 -200 -2 -200 -4z"/>
</g>
</svg>
